<?xml version="1.0" encoding="UTF-8"?>
<svg width="1137px" height="427px" viewBox="0 0 1137 427" version="1.1" xmlns="http://www.w3.org/2000/svg" xmlns:xlink="http://www.w3.org/1999/xlink">
    <title>AnyTaskPlatform_Sky</title>
    <g id="Page-1" stroke="none" stroke-width="1" fill="none" fill-rule="evenodd">
        <g id="AnyTaskPlatform_Sky" transform="translate(0.221894, 0.435224)" fill="#44AAE1" fill-rule="nonzero">
            <g id="Group">
                <path d="M165.278106,189.264776 L148.778106,177.664776 C144.878106,174.864776 145.378106,169.164776 149.578106,166.964776 L286.478106,97.2647757 C298.778106,90.9647757 310.578106,106.664776 300.978106,116.664776 L250.078106,170.664776 C247.478106,173.464776 247.978106,177.964776 251.078106,180.164776 L271.278106,193.864776 C276.278106,197.264776 283.178106,196.464776 287.278106,191.964776 L397.378106,70.8647757 C414.078106,52.5647757 408.678106,23.2647757 386.578106,12.0647757 L370.678106,4.06477566 C360.178106,-1.23522434 347.878106,-1.33522434 337.378106,3.66477566 L112.878106,112.164776 C82.878106,126.664776 75.178106,165.664776 97.178106,190.664776 L117.078106,213.064776 C120.678106,217.164776 126.578106,218.364776 131.578106,215.964776 L164.378106,200.164776 C168.778106,197.964776 169.178106,192.064776 165.278106,189.264776 Z" id="Path"></path>
                <path d="M241.678106,236.664776 L258.178106,248.364776 C262.078106,251.164776 261.578106,256.864776 257.378106,259.064776 L121.778106,328.064776 C109.278106,334.464776 97.378106,318.564776 106.978106,308.264776 L156.978106,255.264776 C159.578106,252.464776 159.078106,247.964776 155.978106,245.764776 L135.778106,232.064776 C130.778106,228.664776 123.878106,229.464776 119.778106,233.964776 L9.77810599,355.064776 C-6.92189401,373.364776 -1.52189401,402.664776 20.578106,413.864776 L36.478106,421.864776 C46.978106,427.164776 59.278106,427.264776 69.778106,422.264776 L309.078106,306.764776 C331.478106,295.864776 337.378106,266.564776 320.878106,247.964776 L289.878106,212.964776 C286.278106,208.864776 280.378106,207.664776 275.378106,210.064776 L242.578106,225.864776 C238.278106,228.064776 237.778106,233.964776 241.678106,236.664776 Z" id="Path"></path>
            </g>
            <g id="Group" transform="translate(396.065000, 90.544000)">
                <path d="M-5.68434189e-14,140.3 C-5.68434189e-14,139.5 0.2,138.4 0.8,136.9 L42.7,14.8 C43.7,12.1 47.3,10.7 53.4,10.7 L63.2,10.7 C69.4,10.7 72.9,12.1 73.9,14.8 L115.8,136.9 C116.2,138.3 116.3,139.5 116.3,140.3 C116.3,141.7 115.5,142.8 114,143.5 C112.5,144.2 110,144.5 106.7,144.5 L98.3,144.5 C95.3,144.5 92.9,144.2 91,143.6 C89.1,143 88,142 87.6,140.5 L79.9,117.3 L35.1,117.3 L27.4,140.5 C26.6,143.2 23.7,144.5 18.6,144.5 L11.1,144.5 C3.9,144.5 -5.68434189e-14,143.1 -5.68434189e-14,140.3 Z M72.2,92.3 L61.5,58.6 C60.9,56.9 60.3,54.9 59.8,52.7 C59.3,50.5 58.9,48.4 58.6,46.4 L57.8,46.4 L57.4,48.8 C56.7,53 55.9,56.3 54.9,58.6 L43.7,92.3 L72.2,92.3 L72.2,92.3 L72.2,92.3 Z" id="Shape"></path>
                <path d="M128.3,138.5 L128.3,78.2 C128.3,69.1 127.7,61.5 126.5,55.4 C126.1,53.5 126,52.1 126,51.3 C126,49.9 127.3,48.7 130,47.8 C132.7,46.9 135.7,46.2 139.1,45.8 C142.5,45.4 145.2,45.2 147.3,45.2 C149.5,45.2 151.1,46 152,47.7 C152.9,49.3 153.7,51.7 154.4,54.9 L155,57.7 C158,53.7 162,50.3 167,47.5 C172,44.7 177.4,43.3 183.2,43.3 C192.7,43.3 199.8,45.8 204.4,50.8 C209,55.8 211.3,63.5 211.3,74 L211.3,138.5 C211.3,142.5 207.4,144.5 199.8,144.5 L194.5,144.5 C186.9,144.5 183.2,142.5 183.2,138.5 L183.2,78.2 C183.2,74.3 182.3,71.4 180.5,69.4 C178.7,67.4 175.7,66.4 171.6,66.4 C168.2,66.4 165.1,67.5 162.5,69.8 C159.8,72.1 157.8,74.6 156.5,77.4 L156.5,138.4 C156.5,142.4 152.6,144.4 145,144.4 L139.7,144.4 C132.1,144.5 128.3,142.5 128.3,138.5 Z" id="Path"></path>
                <path d="M243.4,179.3 C243.4,178.2 243.6,177.1 244.2,175.9 L256.2,144.2 L224.8,52.1 C224.7,51.7 224.6,51.1 224.4,50.3 C224.2,49.5 224.1,49 224.1,48.6 C224.1,47.2 225,46.1 226.9,45.4 C228.8,44.7 231.7,44.4 235.7,44.4 L241.9,44.4 C244.9,44.4 247.3,44.7 249.2,45.3 C251,45.9 252.2,46.9 252.6,48.4 L263.7,83.4 C264.4,85.6 265.3,89.2 266.4,94 C267.5,98.8 268.1,101.8 268.3,102.8 L269.1,106.5 L270,106.5 C270.1,106 270.2,105.2 270.5,104.2 C272.9,92.8 274.5,85.9 275.3,83.5 L286.4,48.5 C286.9,47 288.1,46 289.9,45.4 C291.7,44.8 294.1,44.5 297.2,44.5 L301.8,44.5 C305.7,44.5 308.6,44.8 310.4,45.5 C312.2,46.2 313.1,47.2 313.1,48.7 C313.1,49.4 312.9,50.6 312.6,52.1 L269,179.3 C268.1,182 264.5,183.4 258.5,183.4 L255.1,183.4 C247.2,183.4 243.4,182.1 243.4,179.3 Z" id="Path"></path>
                <path d="M351,138.5 L351,36.1 L320.9,36.1 C318.9,36.1 317.4,35.3 316.5,33.8 C315.6,32.3 315.2,29.9 315.2,26.5 L315.2,20.7 C315.2,17.3 315.6,14.9 316.5,13.4 C317.4,11.9 318.8,11.1 320.9,11.1 L410.7,11.1 C412.7,11.1 414.2,11.9 415.1,13.4 C416,14.9 416.4,17.3 416.4,20.7 L416.4,26.5 C416.4,29.9 416,32.3 415.1,33.8 C414.2,35.3 412.8,36.1 410.7,36.1 L380.5,36.1 L380.5,138.5 C380.5,142.5 376.7,144.5 369.1,144.5 L362.4,144.5 C354.7,144.5 351,142.5 351,138.5 Z" id="Path"></path>
                <path d="M423.1,137.2 C418.6,132.1 416.3,125.4 416.3,116.9 C416.3,110.5 417.6,104.9 420.3,99.8 C422.9,94.7 428.3,90.5 436.3,87 C444.4,83.5 455.9,81.7 470.8,81.7 L470.8,75.4 C470.8,71.7 469.6,68.9 467.3,67.1 C464.9,65.3 461.2,64.4 456.1,64.4 C451.8,64.4 448.1,64.8 445.1,65.7 C442.1,66.6 438.7,67.8 435.2,69.3 C433.3,70.2 432.2,70.6 431.8,70.6 C430.5,70.6 429.1,69.6 427.6,67.7 C426.1,65.8 424.7,63.5 423.6,61 C422.5,58.5 421.9,56.6 421.9,55.3 C421.9,53.1 423.5,50.9 426.7,48.9 C429.9,46.9 434.3,45.2 439.8,44 C445.4,42.7 451.5,42.1 458.3,42.1 C472.5,42.1 482.9,44.9 489.4,50.6 C495.9,56.3 499.1,64 499.1,73.9 L499.1,109.5 C499.1,115.4 499.3,120 499.6,123.3 C499.9,126.6 500.4,129.9 500.9,133 C501.3,134.9 501.4,136.3 501.4,137.1 C501.4,138.5 500.1,139.7 497.4,140.6 C494.7,141.5 491.7,142.2 488.3,142.6 C484.8,143 482.1,143.2 480,143.2 C477.8,143.2 476.2,142.3 475.2,140.4 C474.2,138.5 473.5,135.9 472.9,132.6 C472.8,132.2 472.8,131.7 472.7,131.3 C472.6,130.9 472.5,130.4 472.4,130 C471.7,131.4 470.2,133.2 467.8,135.5 C465.5,137.8 462.3,139.9 458.4,141.8 C454.4,143.7 449.7,144.6 444.5,144.6 C434.7,144.9 427.5,142.4 423.1,137.2 Z M463.7,119.2 C466.9,116.9 469.2,114.1 470.8,110.6 L470.8,100.2 C453.1,100.2 444.2,104.9 444.2,114.2 C444.2,116.7 445,118.7 446.7,120.3 C448.4,121.9 450.7,122.7 453.7,122.7 C457.2,122.6 460.6,121.4 463.7,119.2 Z" id="Shape"></path>
                <path d="M533.6,143.3 C528.7,142.2 524.7,140.7 521.6,138.7 C518.4,136.7 516.8,134.4 516.8,131.8 C516.8,130.2 517.4,128.3 518.5,125.9 C519.6,123.5 521,121.5 522.6,119.7 C524.2,117.9 525.6,117.1 526.8,117.1 C527.4,117.1 528.8,117.6 531,118.6 C533.5,119.7 535.9,120.7 538.2,121.4 C540.5,122.1 543.1,122.5 546,122.5 C549.7,122.5 552.4,121.8 554.3,120.5 C556.2,119.1 557.1,117.1 557.1,114.5 C557.1,112.5 556.5,110.8 555.4,109.5 C554.3,108.2 552.9,107.1 551.2,106.2 C549.5,105.3 547,104.3 543.9,103.1 L540.8,101.9 C536.7,100.3 533.1,98.5 530.2,96.5 C527.1,94.5 524.5,91.6 522.4,87.7 C520.3,83.9 519.2,79 519.2,73.2 C519.2,66.7 520.6,61.2 523.4,56.5 C526.2,51.8 530.3,48.2 535.4,45.9 C540.6,43.4 546.7,42.2 553.8,42.2 C557.9,42.2 562.1,42.6 566.5,43.4 C570.9,44.2 574.7,45.4 577.6,47.1 C580.6,48.7 582.2,50.8 582.2,53.3 C582.2,54.7 581.8,56.7 580.9,59.1 C580,61.5 578.9,63.7 577.6,65.5 C576.3,67.4 575.1,68.3 573.9,68.3 C573.5,68.3 572.5,68 570.9,67.3 C568.7,66.4 566.5,65.6 564.5,65.1 C562.5,64.6 560.1,64.3 557.5,64.3 C550.8,64.3 547.5,66.5 547.5,71 C547.5,73 548.1,74.7 549.4,76.2 C550.7,77.6 552.2,78.8 554.1,79.7 C556,80.6 558.6,81.7 561.9,83 C565.8,84.6 568.2,85.6 569.1,86 C574.1,88.5 578.1,91.8 581.1,95.8 C584.1,99.9 585.7,105.3 585.7,112.2 C585.7,118.7 584.2,124.3 581.3,129.3 C578.4,134.2 574.1,138.1 568.5,140.7 C562.8,143.4 556.2,144.8 548.4,144.8 C543.3,144.9 538.3,144.4 533.6,143.3 Z" id="Path"></path>
                <path d="M601.8,137.6 L601.8,6.3 C601.8,4.2 602.7,2.7 604.6,1.6 C606.5,0.6 609.4,0 613.3,0 L618.6,0 C626.3,0 630,2.1 630,6.2 L630,81.4 L630.6,81.6 L653.7,47.3 C654.7,45.8 656.1,44.8 657.9,44.3 C659.7,43.8 662.2,43.6 665.3,43.6 L672.4,43.6 C679.6,43.6 683,44.6 683,46.5 C683,47.5 682.4,48.7 681.2,50.2 L654.9,87.9 L685.7,136.8 C686.8,138.6 687.3,139.9 687.3,140.8 C687.3,142.7 683.6,143.7 676.4,143.7 L668.5,143.7 C665.4,143.7 662.9,143.4 661,142.9 C659.1,142.4 657.7,141.4 657,140 L630.5,96.3 L629.9,96.6 L629.9,137.6 C629.9,141.6 626.1,143.6 618.5,143.6 L613.2,143.6 C605.6,143.6 601.8,141.6 601.8,137.6 Z" id="Path"></path>
            </g>
            <g id="Group" transform="translate(1082.961000, 82.000000)">
                <path d="M7.689,27.447 L7.689,5.439 L1.217,5.439 C0.788,5.439 0.479,5.279 0.287,4.957 C0.096,4.637 0,4.116 0,3.396 L0,2.158 C0,1.438 0.096,0.918 0.287,0.597 C0.478,0.275 0.788,0.115 1.217,0.115 L20.518,0.115 C20.946,0.115 21.255,0.275 21.447,0.597 C21.638,0.917 21.734,1.438 21.734,2.158 L21.734,3.396 C21.734,4.116 21.638,4.636 21.447,4.957 C21.256,5.279 20.946,5.439 20.518,5.439 L14.023,5.439 L14.023,27.447 C14.023,28.304 13.204,28.732 11.567,28.732 L10.145,28.732 C8.508,28.732 7.689,28.305 7.689,27.447 Z" id="Path"></path>
                <path d="M24.878,27.447 L24.878,1.332 C24.878,0.888 25.077,0.556 25.476,0.333 C25.872,0.111 26.493,1.42108547e-14 27.334,1.42108547e-14 L29.491,1.42108547e-14 C30.792,1.42108547e-14 31.64,0.376 32.038,1.125 L38.9,13.311 L39.245,13.909 L39.589,13.197 L46.497,1.126 C46.909,0.377 47.767,0.001 49.067,0.001 L51.201,0.001 C52.838,0.001 53.657,0.445 53.657,1.333 L53.657,27.448 C53.657,28.305 52.838,28.733 51.201,28.733 L50.008,28.733 C48.37,28.733 47.552,28.305 47.552,27.448 L47.552,10.534 L47.392,10.488 L41.471,21.068 C41.118,21.588 40.575,21.847 39.841,21.847 L38.671,21.847 C38.288,21.847 37.967,21.783 37.707,21.653 C37.446,21.523 37.226,21.328 37.042,21.068 L31.098,10.488 L30.937,10.534 L30.937,27.447 C30.937,28.304 30.126,28.732 28.505,28.732 L27.334,28.732 C25.696,28.732 24.878,28.305 24.878,27.447 Z" id="Path"></path>
            </g>
            <path d="M406.67752,342.564776 L406.67752,316.959307 L422.085723,316.959307 C429.482859,316.959307 435.165476,315.244789 439.133575,311.815752 C443.101674,308.386716 445.085723,303.497718 445.085723,297.14876 C445.085723,291.129229 443.056752,286.29264 438.998809,282.638994 C434.940866,278.985349 429.333119,277.158526 422.175567,277.158526 L422.175567,277.158526 L398.05252,277.158526 L398.05252,342.564776 L406.67752,342.564776 Z M422.175567,309.906573 L406.67752,309.906573 L406.67752,284.256182 L422.669708,284.256182 C426.95226,284.346026 430.3214,285.558916 432.777129,287.894854 C435.232859,290.230791 436.460723,293.345375 436.460723,297.238604 C436.460723,301.341468 435.232859,304.478513 432.777129,306.649737 C430.3214,308.820961 426.787546,309.906573 422.175567,309.906573 L422.175567,309.906573 Z M463.818145,342.564776 L463.818145,273.564776 L455.507598,273.564776 L455.507598,342.564776 L463.818145,342.564776 Z M492.118926,343.463213 C497.479603,343.463213 502.091583,341.456703 505.954864,337.443682 C506.254343,339.899411 506.643666,341.606442 507.122833,342.564776 L507.122833,342.564776 L515.837676,342.564776 L515.837676,341.846026 C514.699655,339.210609 514.130645,335.661781 514.130645,331.199541 L514.130645,331.199541 L514.130645,308.828448 C514.010853,303.916989 512.363718,300.061195 509.189239,297.261065 C506.01476,294.460935 501.62739,293.060869 496.027129,293.060869 C492.493275,293.060869 489.251413,293.719724 486.301543,295.037432 C483.351674,296.35514 481.015736,298.144528 479.293731,300.405596 C477.571726,302.666664 476.710723,305.010088 476.710723,307.435869 L476.710723,307.435869 L485.066192,307.435869 C485.066192,305.309567 486.069447,303.497718 488.075958,302.000323 C490.082468,300.502927 492.568145,299.754229 495.532989,299.754229 C498.917103,299.754229 501.47765,300.615231 503.214629,302.337237 C504.951609,304.059242 505.820098,306.372718 505.820098,309.277666 L505.820098,309.277666 L505.820098,313.096026 L497.734161,313.096026 C490.756296,313.096026 485.34321,314.496091 481.494903,317.296221 C477.646596,320.096351 475.722442,324.027015 475.722442,329.088213 C475.722442,333.250974 477.257273,336.687497 480.326934,339.397783 C483.396596,342.10807 487.32726,343.463213 492.118926,343.463213 Z M493.331817,336.230791 C490.606557,336.230791 488.375437,335.497067 486.638458,334.029619 C484.901478,332.562171 484.032989,330.525713 484.032989,327.920244 C484.032989,321.960609 489.124135,318.980791 499.306426,318.980791 L499.306426,318.980791 L505.820098,318.980791 L505.820098,328.953448 C504.771921,331.109698 503.079864,332.861651 500.743926,334.209307 C498.407989,335.556963 495.937286,336.230791 493.331817,336.230791 Z M541.353301,343.463213 C543.419708,343.463213 545.54601,343.163734 547.732208,342.564776 L547.732208,342.564776 L547.732208,335.826494 C546.055124,336.185869 544.737416,336.365557 543.779083,336.365557 C541.832468,336.365557 540.454864,335.878903 539.64627,334.905596 C538.837676,333.932289 538.433379,332.472328 538.433379,330.525713 L538.433379,330.525713 L538.433379,300.383135 L547.507598,300.383135 L547.507598,293.959307 L538.433379,293.959307 L538.433379,282.189776 L530.122833,282.189776 L530.122833,293.959307 L521.273223,293.959307 L521.273223,300.383135 L530.122833,300.383135 L530.122833,330.525713 C530.122833,334.658526 531.066192,337.847979 532.952911,340.094073 C534.839629,342.340166 537.63976,343.463213 541.353301,343.463213 Z M569.609161,342.564776 L569.609161,300.383135 L579.986114,300.383135 L579.986114,293.959307 L569.609161,293.959307 L569.609161,288.838213 C569.609161,285.903317 570.342885,283.649737 571.810333,282.077471 C573.27778,280.505205 575.359161,279.719073 578.054473,279.719073 C579.641713,279.719073 581.139109,279.853838 582.546661,280.123369 L582.546661,280.123369 L582.995879,273.385088 C581.109161,272.875974 579.207468,272.621416 577.290801,272.621416 C572.199655,272.621416 568.261504,274.043942 565.476348,276.888994 C562.691192,279.734046 561.298614,283.762041 561.298614,288.972979 L561.298614,288.972979 L561.298614,293.959307 L553.616973,293.959307 L553.616973,300.383135 L561.298614,300.383135 L561.298614,342.564776 L569.609161,342.564776 Z M609.095489,343.463213 C613.467885,343.463213 617.338653,342.415036 620.707793,340.318682 C624.076934,338.222328 626.667429,335.294919 628.479278,331.536455 C630.291127,327.777992 631.197051,323.532875 631.197051,318.801104 L631.197051,318.801104 L631.197051,318.217119 C631.197051,310.610349 629.153106,304.515948 625.065215,299.933916 C620.977325,295.351885 615.624135,293.060869 609.005645,293.060869 C604.723093,293.060869 600.912221,294.094073 597.573028,296.160479 C594.233835,298.226885 591.628366,301.161781 589.756622,304.965166 C587.884877,308.768552 586.949004,313.051104 586.949004,317.812823 L586.949004,317.812823 L586.949004,318.396807 C586.949004,325.943682 588.99295,332.008135 593.08084,336.590166 C597.168731,341.172198 602.506947,343.463213 609.095489,343.463213 Z M609.095489,336.68001 C604.90278,336.68001 601.556101,335.047849 599.05545,331.783526 C596.554799,328.519203 595.304473,324.191729 595.304473,318.801104 C595.304473,312.721677 596.562286,308.049802 599.077911,304.785479 C601.593536,301.521156 604.90278,299.888994 609.005645,299.888994 C613.198353,299.888994 616.560007,301.543617 619.090606,304.852862 C621.621205,308.162106 622.886504,312.482093 622.886504,317.812823 C622.886504,323.772458 621.643666,328.406898 619.157989,331.716143 C616.672312,335.025388 613.318145,336.68001 609.095489,336.68001 Z M649.929473,342.564776 L649.929473,308.064776 C651.876088,303.422849 655.574655,301.101885 661.025176,301.101885 C662.492624,301.101885 663.855254,301.206703 665.113067,301.416338 L665.113067,301.416338 L665.113067,293.689776 C664.274525,293.270505 663.046661,293.060869 661.429473,293.060869 C656.428171,293.060869 652.56489,295.232093 649.839629,299.574541 L649.839629,299.574541 L649.704864,293.959307 L641.618926,293.959307 L641.618926,342.564776 L649.929473,342.564776 Z M681.015411,342.564776 L681.015411,307.076494 C683.021921,302.434567 686.750437,300.113604 692.200958,300.113604 C699.118926,300.113604 702.577911,303.647458 702.577911,310.715166 L702.577911,310.715166 L702.577911,342.564776 L710.933379,342.564776 L710.933379,310.310869 C711.262807,307.196286 712.445749,304.718096 714.482208,302.876299 C716.518666,301.034502 719.079213,300.113604 722.163848,300.113604 C725.907338,300.113604 728.572702,300.974606 730.159942,302.696612 C731.747182,304.418617 732.540801,307.016599 732.540801,310.490557 L732.540801,310.490557 L732.540801,342.564776 L740.851348,342.564776 L740.851348,309.996416 C740.671661,298.706052 735.251088,293.060869 724.589629,293.060869 C721.055775,293.060869 717.993601,293.779619 715.403106,295.217119 C712.812611,296.654619 710.70877,298.541338 709.091583,300.877276 C706.635853,295.666338 702.0089,293.060869 695.210723,293.060869 C689.161244,293.060869 684.354603,295.157224 680.790801,299.349932 L680.790801,299.349932 L680.566192,293.959307 L672.704864,293.959307 L672.704864,342.564776 L681.015411,342.564776 Z" id="Platform"></path>
        </g>
    </g>
</svg>