<?xml version="1.0" encoding="utf-8"?>
<!-- Generator: Adobe Illustrator 19.0.0, SVG Export Plug-In . SVG Version: 6.00 Build 0)  -->
<svg version="1.1" id="layer" xmlns="http://www.w3.org/2000/svg" xmlns:xlink="http://www.w3.org/1999/xlink" x="0px" y="0px"
	 viewBox="-153 -46 652 652" style="enable-background:new -153 -46 652 652;" xml:space="preserve">
<style type="text/css">
	.st0{fill:white;}
	.st1{fill:none;stroke:white;stroke-width:1.5119;}
</style>
<path class="st0" d="M-94.4,242.5c0.3,0,0.7,0,1,0.1c0.3,0.1,0.4,0.4,0.4,1.1c-0.1,0.5-0.1,1-0.1,1.6s0,1.2,0,1.8
	c0,2,0.1,3.8,0.2,5.5c0,0.2-0.1,0.3-0.3,0.4c-0.2,0.1-0.4,0.2-0.7,0.2c-0.3,0-0.5,0-0.8-0.1c-0.2-0.1-0.4-0.3-0.4-0.5
	c-0.3-1.7-0.6-3-0.9-4c-0.3-1-0.7-1.7-1.3-2.2c-0.5-0.5-1.3-0.8-2.2-1c-0.9-0.1-2.2-0.2-3.7-0.3h-3.9c-1.1,0-2,0-2.7,0.1
	c-0.7,0-1.2,0.2-1.6,0.5c-0.4,0.3-0.7,0.7-0.8,1.3c-0.1,0.6-0.2,1.5-0.2,2.6v11.5c0,0.6,0.1,1,0.3,1.1c0.2,0.2,0.4,0.2,0.7,0.2
	c2,0,3.6-0.1,4.8-0.3s2-0.5,2.6-1c0.6-0.5,1-1.1,1.2-1.8c0.2-0.7,0.4-1.7,0.5-2.9c0-0.3,0.2-0.5,0.4-0.6c0.2-0.1,0.5-0.2,0.7-0.2
	c0.3,0,0.5,0.1,0.7,0.2c0.2,0.1,0.3,0.3,0.3,0.6c0,0.7,0,1.3-0.1,1.9c0,0.5-0.1,1.1-0.1,1.6c0,0.5-0.1,1.1-0.1,1.7
	c0,0.6-0.1,1.3-0.1,2.1c0,1.3,0.1,2.5,0.2,3.6c0.1,1.1,0.2,2.4,0.2,3.9c0,0.2-0.1,0.4-0.3,0.5c-0.2,0.1-0.5,0.2-0.7,0.1
	c-0.3,0-0.5-0.1-0.7-0.2c-0.2-0.1-0.4-0.3-0.4-0.6c-0.1-1.3-0.3-2.3-0.5-3.1c-0.2-0.8-0.6-1.4-1.2-1.8c-0.6-0.4-1.5-0.7-2.6-0.9
	c-1.2-0.2-2.7-0.2-4.8-0.2c-0.2,0-0.4,0.1-0.7,0.2c-0.2,0.2-0.3,0.5-0.3,1v8.6c0,1.4,0.1,2.6,0.3,3.6c0.2,1,0.5,1.8,0.9,2.4
	c0.4,0.6,0.9,1.1,1.4,1.5c0.6,0.4,1.2,0.6,2,0.8c0.6,0.1,1.3,0.2,2.1,0.3c0.8,0.1,1.6,0.1,2.4,0.1c1.1,0,2,0,3-0.1
	c0.9-0.1,1.6-0.2,2.1-0.4c0.9-0.3,1.6-0.6,2.3-1c0.6-0.3,1.2-0.8,1.6-1.4c0.4-0.6,0.8-1.3,1.1-2.1c0.3-0.9,0.5-1.9,0.7-3.3
	c0-0.3,0.2-0.4,0.5-0.5c0.3-0.1,0.5-0.1,0.9-0.1c0.3,0,0.6,0.1,0.8,0.2c0.2,0.1,0.3,0.3,0.3,0.5c-0.2,1.8-0.4,3.6-0.6,5.2
	c-0.2,1.6-0.2,3.2-0.2,4.9c0,0.1-0.1,0.3-0.3,0.6c-0.2,0.2-0.6,0.4-1.2,0.4h-23.8c-1.7,0-3.3,0-4.9,0.1c-1.6,0.1-3,0.2-4.3,0.3
	c-0.4,0-0.6-0.1-0.8-0.3c-0.2-0.2-0.3-0.4-0.3-0.7c0-0.3,0-0.5,0.2-0.8c0.2-0.2,0.5-0.4,0.9-0.4c1.1-0.1,1.9-0.3,2.7-0.6
	c0.7-0.2,1.4-0.6,1.8-1c0.5-0.5,0.8-1,1.1-1.7c0.2-0.7,0.4-1.6,0.4-2.7v-25.3c0-1,0-1.9-0.1-2.8c-0.1-0.9-0.2-1.8-0.4-2.6
	c-0.2-0.8-0.6-1.5-1-2c-0.5-0.6-1.1-1-1.9-1.2c-0.5-0.1-1-0.2-1.5-0.3c-0.5-0.1-1-0.2-1.5-0.2c-0.3,0-0.5-0.1-0.6-0.3
	c-0.1-0.2-0.2-0.5-0.2-0.7s0.1-0.5,0.2-0.7c0.1-0.2,0.3-0.3,0.6-0.3c1.5,0,2.8,0,4,0.1c1.2,0.1,2.6,0.1,4.1,0.1H-94.4z M-59,275.2
	c0,1.8,0,3.3,0.1,4.4c0.1,1.1,0.3,2,0.6,2.6c0.3,0.6,0.8,1.1,1.5,1.3c0.7,0.2,1.6,0.4,2.8,0.4c0.2,0,0.3,0.1,0.4,0.3
	c0.1,0.2,0.2,0.4,0.2,0.7c0,0.2,0,0.4-0.1,0.7c-0.1,0.2-0.2,0.3-0.5,0.3c-0.3,0-0.6,0-0.9,0c-0.2,0-0.5,0-0.7,0.1
	c-0.2,0-0.5,0.1-0.8,0.1c-0.3,0-0.6,0.1-1.1,0.1c-0.4,0-0.8,0.1-1.4,0.3c-0.6,0.1-1.2,0.3-1.9,0.4s-1.3,0.2-1.8,0.3
	c-0.6,0.1-0.9,0.1-1.1,0.1c-0.3,0-0.6-0.3-0.9-0.9c-0.2-0.6-0.3-1.5-0.3-2.6c0-0.2-0.1-0.3-0.2-0.3c-0.1,0-0.2,0.1-0.3,0.2
	c-1.4,1.2-2.7,2.1-3.9,2.7c-1.3,0.6-2.8,0.9-4.7,0.9c-1.9,0-3.7-0.3-5.2-1c-1.6-0.7-2.9-1.6-3.9-2.9c-1.1-1.2-1.9-2.8-2.5-4.6
	c-0.6-1.8-0.9-3.8-0.9-6c0-2.9,0.5-5.5,1.4-7.6c0.9-2.1,2.1-3.9,3.6-5.3c1.5-1.4,3.2-2.4,5-3.1c1.9-0.7,3.7-1,5.6-1
	c0.9,0,1.8,0.1,2.9,0.3c1.1,0.2,2.1,0.5,3,1v-4c0-1.9,0-3.4-0.1-4.5c-0.1-1.1-0.3-2-0.7-2.6c-0.4-0.6-0.9-1-1.7-1.2
	s-1.8-0.4-3.1-0.5c-0.2,0-0.3-0.1-0.4-0.3c-0.1-0.2-0.2-0.4-0.2-0.7c0-0.2,0-0.4,0.1-0.7c0.1-0.2,0.2-0.3,0.5-0.3
	c0.7,0,1.6-0.1,2.4-0.2c0.9-0.1,1.8-0.1,2.7-0.2c0.9-0.1,1.8-0.2,2.7-0.4c0.9-0.2,1.7-0.4,2.5-0.6c0.6-0.2,1-0.1,1.1,0.1
	c0.2,0.2,0.3,0.5,0.4,0.8L-59,275.2L-59,275.2z M-65.2,261.9c-0.8-1.1-1.7-1.8-2.7-2.3c-1-0.5-2.1-0.8-3.5-0.8
	c-1.3,0-2.5,0.2-3.5,0.6c-1.1,0.4-1.9,1.1-2.7,2c-0.7,1-1.3,2.3-1.6,3.9c-0.4,1.7-0.6,3.8-0.6,6.3c0,1.5,0.2,2.9,0.5,4.4
	c0.3,1.4,0.8,2.7,1.3,3.8c0.6,1.1,1.3,2,2.2,2.7c0.9,0.7,1.8,1,3,1c1.8,0,3.4-0.3,4.6-1c1.2-0.6,2.2-1.5,3.1-2.5
	C-65.2,280.2-65.2,261.9-65.2,261.9z M-24.8,261.2c0.6,0.9,1.1,1.9,1.3,2.9c0.3,1,0.4,2.1,0.5,3.1c0,1.9-0.4,3.6-1.1,5.1
	c-0.7,1.5-1.7,2.7-3,3.7c-1.2,1-2.7,1.8-4.3,2.3c-1.6,0.5-3.4,0.8-5.2,0.8c-0.5,0-1.2,0-2,0.1c-0.8,0-1.6,0.1-2.4,0.3
	c-0.8,0.1-1.5,0.3-2,0.6c-0.5,0.3-0.8,0.7-0.8,1.2c0,0.4,0.2,0.7,0.7,1c0.4,0.3,1,0.5,1.6,0.6c0.6,0.2,1.3,0.3,1.9,0.3
	c0.6,0.1,1.1,0.1,1.5,0.1c3.2,0.2,6,0.5,8.5,0.8c2.5,0.3,4.6,0.9,6.3,1.6c1.7,0.7,3.1,1.8,4,3.1c0.9,1.3,1.4,3.1,1.4,5.2
	c0,1.9-0.4,3.6-1.1,5.3c-0.7,1.6-1.9,3-3.3,4.2c-1.5,1.2-3.3,2.1-5.5,2.8c-2.2,0.7-4.7,1-7.5,1c-2.4,0-4.5-0.2-6.5-0.6
	c-2-0.4-3.7-1.1-5.1-1.9c-1.4-0.9-2.5-2-3.3-3.3c-0.8-1.4-1.1-3-1.1-4.9c0-1.1,0.2-2.1,0.5-3c0.3-0.9,0.7-1.7,1.2-2.4
	c0.5-0.7,1.1-1.3,1.8-1.9c0.7-0.5,1.3-1,2-1.3c-1-0.4-1.9-0.8-2.8-1.5c-0.8-0.6-1.2-1.7-1.2-3.1c0-1,0.2-1.9,0.7-2.6
	c0.5-0.7,1.1-1.3,1.8-1.7c0.8-0.4,1.6-0.8,2.6-1c0.9-0.2,1.9-0.3,2.8-0.4c0,0,0.1,0,0.1-0.1c0,0,0-0.1-0.1-0.1
	c-2.2-0.9-4-2.1-5.3-3.6c-1.3-1.6-1.9-3.6-1.9-6.3c0-1.8,0.3-3.4,1-4.9c0.7-1.5,1.6-2.7,2.8-3.7c1.2-1,2.7-1.8,4.4-2.4
	c1.7-0.6,3.6-0.9,5.6-0.9c2.3,0,4.2,0.3,5.6,1c1.4,0.7,2.6,1.5,3.8,2.6c0.8-0.8,1.8-1.5,3-2.1c1.1-0.6,2.4-0.9,3.8-0.9
	c0.5,0,1,0,1.6,0.1s1.1,0.3,1.6,0.5c0.5,0.2,0.9,0.6,1.2,1c0.3,0.4,0.5,0.9,0.5,1.6c0,0.7-0.2,1.4-0.6,2c-0.4,0.6-1.2,0.9-2.3,0.9
	c-0.8,0-1.4-0.2-1.6-0.5c-0.3-0.3-0.5-0.7-0.6-1.1c-0.1-0.4-0.3-0.8-0.5-1.1c-0.2-0.3-0.6-0.5-1.2-0.5c-0.7,0-1.4,0.2-2.1,0.5
	C-23.9,260.2-24.4,260.6-24.8,261.2z M-42.6,288.7c-0.7,0.6-1.3,1.5-1.8,2.6c-0.4,1.1-0.7,2.3-0.7,3.4c0,1.6,0.3,3,1,4.2
	c0.7,1.2,1.6,2.2,2.7,3c1.1,0.8,2.4,1.4,3.8,1.8c1.4,0.4,2.9,0.6,4.4,0.6c1.3,0,2.6-0.2,3.7-0.7c1.2-0.4,2.2-1,3.1-1.8
	c0.9-0.7,1.6-1.6,2.1-2.6c0.5-1,0.8-2.1,0.8-3.3c0-1.5-0.5-2.7-1.5-3.6c-1-0.9-2.3-1.6-4-2.2c-1.7-0.5-3.7-0.9-6-1.1
	C-37.4,289-39.9,288.8-42.6,288.7z M-36.3,276.7c2.3,0,3.9-0.7,4.9-2.2c1-1.5,1.5-3.7,1.5-6.5c0-1.4-0.1-2.8-0.2-3.9
	c-0.2-1.2-0.4-2.2-0.9-3.1c-0.4-0.9-1-1.5-1.7-2c-0.7-0.5-1.7-0.7-2.8-0.7c-1.4,0-2.5,0.3-3.4,0.9c-0.9,0.6-1.5,1.3-2,2.3
	c-0.5,0.9-0.8,2-1,3.1c-0.2,1.1-0.3,2.3-0.3,3.3c0,2.9,0.5,5.1,1.5,6.6C-39.7,275.9-38.2,276.7-36.3,276.7z M-4.2,269.9
	c-0.2,0-0.3,0.1-0.4,0.2c0,0.2,0,0.3,0,0.6c0,2.3,0.3,4.2,0.8,5.8c0.5,1.6,1.2,2.9,2.1,3.8c0.9,1,2,1.7,3.2,2.1
	c1.2,0.4,2.6,0.7,4,0.7c1.5,0,2.9-0.1,4.3-0.4c1.4-0.2,2.6-0.8,3.6-1.6c0.2-0.2,0.4-0.2,0.7-0.2c0.2,0,0.4,0.2,0.6,0.3
	c0.2,0.2,0.3,0.4,0.3,0.6c0,0.2,0,0.4-0.1,0.6c-1.4,1.8-3,3.1-4.7,3.8c-1.8,0.7-3.9,1-6.5,1c-2.6,0-4.9-0.4-6.8-1.2
	c-1.9-0.8-3.5-1.9-4.7-3.3c-1.2-1.4-2.2-3.1-2.8-5c-0.6-1.9-0.9-4-0.9-6.2c0-2.1,0.4-4.2,1.1-6.1c0.7-1.9,1.7-3.6,3.1-5
	c1.3-1.4,2.9-2.5,4.7-3.4c1.8-0.8,3.8-1.2,6-1.2c1.8,0,3.5,0.3,5,1c1.5,0.6,2.8,1.5,3.8,2.6c1.1,1.1,1.9,2.5,2.5,4
	c0.6,1.6,0.9,3.2,0.9,5c0,0.9-0.3,1.4-1,1.4L-4.2,269.9L-4.2,269.9z M7.8,267.6c0.6,0,1-0.2,1.1-0.7c0.1-0.4,0.1-1,0.1-1.6
	c0-0.9-0.1-1.8-0.4-2.7c-0.3-0.9-0.7-1.6-1.2-2.3c-0.5-0.7-1.2-1.2-1.9-1.6c-0.7-0.4-1.6-0.6-2.6-0.6c-1.2,0-2.2,0.2-3.1,0.6
	c-0.9,0.4-1.6,1-2.2,1.6c-0.6,0.7-1,1.5-1.3,2.4c-0.3,0.9-0.5,1.9-0.7,2.9c-0.1,0.5-0.1,1-0.1,1.3c0,0.3,0.1,0.5,0.3,0.5H7.8z
	 M72.9,262.6c0.5,0,0.9-0.1,1.2-0.3c0.2-0.2,0.4-0.5,0.4-1.1v-8.9c0-1.4-0.1-2.5-0.2-3.5c-0.2-1-0.4-1.8-0.9-2.4
	c-0.4-0.6-1.1-1.1-1.9-1.4s-1.9-0.5-3.3-0.6c-0.3,0-0.5-0.1-0.6-0.4c-0.1-0.2-0.2-0.5-0.2-0.8c0-0.3,0.1-0.5,0.2-0.7
	c0.1-0.2,0.3-0.3,0.6-0.3c1.4,0,3,0.1,4.8,0.2c1.8,0.1,3.5,0.2,5.1,0.2c0.9,0,1.8,0,2.6-0.1c0.8,0,1.6-0.1,2.4-0.1
	c0.8,0,1.5-0.1,2.3-0.1c0.8,0,1.6-0.1,2.6-0.1c0.3,0,0.4,0.1,0.6,0.3c0.1,0.2,0.2,0.5,0.1,0.7c0,0.3-0.1,0.5-0.2,0.8
	c-0.1,0.2-0.3,0.4-0.5,0.4c-1.4,0.1-2.5,0.3-3.3,0.6c-0.8,0.3-1.5,0.7-1.9,1.3c-0.4,0.6-0.7,1.4-0.9,2.3c-0.1,1-0.2,2.2-0.2,3.7
	v25.7c0,1.4,0.1,2.6,0.3,3.4c0.2,0.8,0.5,1.4,1,1.9c0.5,0.5,1.1,0.8,1.9,1c0.8,0.2,1.9,0.4,3.2,0.5c0.3,0,0.5,0.2,0.6,0.4
	c0.2,0.2,0.2,0.5,0.2,0.7c0,0.3-0.1,0.5-0.2,0.7c-0.2,0.2-0.4,0.3-0.7,0.3c-1.8,0-3.4-0.1-5-0.3c-1.6-0.2-3.2-0.3-4.8-0.3
	c-1.7,0-3.4,0.1-5.2,0.3c-1.8,0.2-3.4,0.3-4.8,0.3c-0.3,0-0.5-0.1-0.6-0.3c-0.1-0.2-0.2-0.5-0.2-0.7c0-0.3,0.1-0.5,0.2-0.7
	c0.1-0.2,0.3-0.3,0.6-0.4c1.4-0.1,2.4-0.3,3.3-0.5c0.8-0.2,1.4-0.5,1.9-1c0.5-0.5,0.8-1.1,0.9-1.9c0.2-0.8,0.2-1.9,0.2-3.4v-10.9
	c0-1.1-0.5-1.7-1.4-1.7H53.4c-1,0-1.4,0.4-1.4,1.3v11.3c0,1.4,0.1,2.6,0.3,3.4c0.2,0.8,0.5,1.4,1,1.9c0.5,0.5,1.1,0.8,1.9,1
	c0.8,0.2,1.9,0.4,3.2,0.5c0.3,0,0.5,0.2,0.6,0.4c0.2,0.2,0.2,0.5,0.2,0.7c0,0.3-0.1,0.5-0.2,0.7c-0.2,0.2-0.4,0.3-0.7,0.3
	c-1.8,0-3.4-0.1-5-0.3c-1.6-0.2-3.2-0.3-4.8-0.3c-1.7,0-3.4,0.1-5.2,0.3c-1.8,0.2-3.4,0.3-4.8,0.3c-0.3,0-0.5-0.1-0.6-0.3
	c-0.1-0.2-0.2-0.5-0.2-0.7c0-0.3,0.1-0.5,0.2-0.7c0.1-0.2,0.3-0.3,0.6-0.4c1.4-0.1,2.4-0.3,3.3-0.5c0.8-0.2,1.4-0.5,1.9-1
	c0.5-0.5,0.8-1.1,0.9-1.9c0.2-0.8,0.2-1.9,0.2-3.4v-25.7c0-1.4-0.1-2.5-0.2-3.5c-0.2-1-0.4-1.8-0.9-2.4c-0.4-0.6-1.1-1.1-1.9-1.4
	c-0.8-0.3-1.9-0.5-3.3-0.6c-0.3,0-0.5-0.1-0.6-0.4c-0.1-0.2-0.2-0.5-0.2-0.8c0-0.3,0.1-0.5,0.2-0.7c0.1-0.2,0.3-0.3,0.6-0.3
	c1.4,0,3,0.1,4.8,0.2c1.8,0.1,3.5,0.2,5.1,0.2c0.9,0,1.8,0,2.6-0.1c0.8,0,1.6-0.1,2.4-0.1c0.8,0,1.5-0.1,2.3-0.1
	c0.8,0,1.6-0.1,2.6-0.1c0.3,0,0.4,0.1,0.6,0.3c0.1,0.2,0.2,0.5,0.1,0.7c0,0.3-0.1,0.5-0.2,0.8c-0.1,0.2-0.3,0.4-0.5,0.4
	c-1.4,0.1-2.5,0.3-3.3,0.6c-0.8,0.3-1.5,0.7-1.9,1.3c-0.4,0.6-0.7,1.4-0.9,2.3c-0.1,1-0.2,2.2-0.2,3.7v8.9c0,0.9,0.5,1.3,1.4,1.3
	H72.9z M103.3,278.7c0,1.1,0,2,0.1,2.8c0,0.7,0.2,1.4,0.5,1.8c0.3,0.5,0.7,0.9,1.2,1.1c0.5,0.3,1.3,0.5,2.3,0.6
	c0.3,0,0.5,0.2,0.6,0.4c0.1,0.2,0.2,0.4,0.2,0.7c0,0.2-0.1,0.4-0.2,0.6c-0.1,0.2-0.3,0.3-0.6,0.3c-0.8,0-1.8-0.1-3.1-0.2
	c-1.3-0.2-2.6-0.2-3.9-0.2c-1.4,0-2.8,0.1-4.1,0.2c-1.3,0.2-2.6,0.2-3.8,0.2c-0.2,0-0.4-0.1-0.5-0.3c-0.1-0.2-0.2-0.4-0.2-0.6
	c0-0.3,0.1-0.5,0.2-0.7c0.1-0.2,0.3-0.3,0.6-0.4c1.1-0.1,2-0.3,2.7-0.6c0.6-0.3,1.1-0.6,1.4-1.1c0.3-0.5,0.4-1,0.5-1.7
	c0-0.7,0.1-1.5,0.1-2.5v-10.6c0-1.9,0-3.4-0.1-4.5c-0.1-1.1-0.3-2-0.6-2.6c-0.3-0.6-0.8-1-1.4-1.2c-0.6-0.2-1.4-0.4-2.5-0.5
	c-0.3,0-0.5-0.1-0.6-0.3c-0.1-0.2-0.2-0.4-0.2-0.7c0-0.2,0.1-0.4,0.2-0.7c0.1-0.2,0.3-0.3,0.6-0.3c0.4,0,1-0.1,1.6-0.1
	c0.6,0,1.3-0.1,2-0.2c0.7-0.1,1.4-0.2,2.1-0.3s1.4-0.2,1.9-0.4c0.5-0.1,0.9-0.2,1.2-0.3c0.3-0.1,0.5-0.2,0.7-0.2
	c0.5,0,0.9,0.2,1,0.5c0.2,0.3,0.2,0.6,0.2,0.9L103.3,278.7L103.3,278.7z M99.8,249.6c-1.1,0-2-0.3-2.8-1c-0.8-0.7-1.2-1.5-1.2-2.5
	c0-1,0.4-1.9,1.1-2.6c0.7-0.7,1.7-1.1,2.8-1.1c1.1,0,1.9,0.4,2.6,1.1c0.7,0.7,1,1.6,1,2.6c0,1-0.3,1.8-1,2.5
	C101.6,249.3,100.8,249.6,99.8,249.6z M117.7,253.3c0-1.9,0-3.4-0.1-4.5c-0.1-1.1-0.3-2-0.7-2.6c-0.4-0.6-0.9-1-1.6-1.2
	c-0.7-0.2-1.7-0.4-3-0.5c-0.2,0-0.4-0.1-0.5-0.3c-0.1-0.2-0.2-0.4-0.2-0.7c0-0.2,0-0.4,0.1-0.7c0.1-0.2,0.3-0.3,0.6-0.3
	c1.3-0.1,2.9-0.2,4.8-0.4c1.9-0.2,3.6-0.5,5.2-1c0.6-0.2,1-0.1,1.2,0.1c0.2,0.2,0.3,0.5,0.4,0.8v36.8c0,1.1,0,2,0.1,2.8
	c0,0.7,0.2,1.4,0.5,1.8c0.3,0.5,0.7,0.9,1.4,1.1c0.6,0.3,1.5,0.5,2.7,0.6c0.3,0,0.5,0.2,0.6,0.4c0.1,0.2,0.2,0.4,0.2,0.7
	c0,0.2-0.1,0.4-0.2,0.6c-0.1,0.2-0.3,0.3-0.6,0.3c-1.1,0-2.2-0.1-3.5-0.2c-1.3-0.2-2.6-0.2-3.9-0.2c-1.4,0-2.8,0.1-4.1,0.2
	c-1.4,0.2-2.7,0.2-4.1,0.2c-0.2,0-0.4-0.1-0.5-0.3c-0.1-0.2-0.2-0.4-0.2-0.6c0-0.3,0.1-0.5,0.2-0.7c0.1-0.2,0.3-0.3,0.6-0.4
	c1.2-0.1,2.2-0.3,2.9-0.6c0.7-0.3,1.2-0.6,1.5-1.1c0.3-0.5,0.5-1,0.5-1.7c0-0.7,0.1-1.5,0.1-2.5L117.7,253.3L117.7,253.3z
	 M139.1,253.3c0-1.9,0-3.4-0.1-4.5c-0.1-1.1-0.3-2-0.7-2.6c-0.4-0.6-0.9-1-1.6-1.2c-0.7-0.2-1.7-0.4-3-0.5c-0.2,0-0.4-0.1-0.5-0.3
	c-0.1-0.2-0.2-0.4-0.2-0.7c0-0.2,0-0.4,0.1-0.7c0.1-0.2,0.3-0.3,0.6-0.3c1.3-0.1,2.9-0.2,4.8-0.4c1.9-0.2,3.6-0.5,5.2-1
	c0.6-0.2,1-0.1,1.2,0.1c0.2,0.2,0.3,0.5,0.4,0.8v36.8c0,1.1,0,2,0.1,2.8c0,0.7,0.2,1.4,0.5,1.8c0.3,0.5,0.7,0.9,1.4,1.1
	c0.6,0.3,1.5,0.5,2.7,0.6c0.3,0,0.5,0.2,0.6,0.4c0.1,0.2,0.2,0.4,0.2,0.7c0,0.2-0.1,0.4-0.2,0.6c-0.1,0.2-0.3,0.3-0.6,0.3
	c-1.1,0-2.2-0.1-3.5-0.2c-1.3-0.2-2.6-0.2-3.9-0.2c-1.4,0-2.8,0.1-4.1,0.2c-1.4,0.2-2.7,0.2-4.1,0.2c-0.2,0-0.4-0.1-0.5-0.3
	c-0.1-0.2-0.2-0.4-0.2-0.6c0-0.3,0.1-0.5,0.2-0.7c0.1-0.2,0.3-0.3,0.6-0.4c1.2-0.1,2.2-0.3,2.9-0.6c0.7-0.3,1.2-0.6,1.5-1.1
	c0.3-0.5,0.5-1,0.5-1.7c0-0.7,0.1-1.5,0.1-2.5L139.1,253.3L139.1,253.3z M214.4,269.3c0,2.8-0.3,5.4-1,7.7c-0.6,2.3-1.6,4.2-3,5.7
	c-1.4,1.6-3.2,2.7-5.4,3.6c-2.2,0.8-4.9,1.2-8.1,1.2c-3.1,0-5.7-0.3-8-0.9c-2.3-0.6-4.1-1.6-5.6-2.9c-1.5-1.3-2.6-3.1-3.3-5.2
	c-0.7-2.1-1.1-4.7-1.1-7.7v-18.4c0-1.4-0.1-2.5-0.2-3.5c-0.2-1-0.4-1.8-0.9-2.4c-0.4-0.6-1.1-1.1-1.9-1.4c-0.8-0.3-1.9-0.5-3.3-0.6
	c-0.3,0-0.5-0.1-0.6-0.4c-0.1-0.2-0.2-0.5-0.2-0.8c0-0.3,0.1-0.5,0.2-0.7s0.3-0.3,0.6-0.3c1.4,0,3,0.1,4.8,0.2
	c1.8,0.2,3.5,0.2,5.1,0.2c0.9,0,1.8,0,2.6-0.1c0.8,0,1.6-0.1,2.4-0.2c0.8-0.1,1.5-0.1,2.3-0.2c0.8,0,1.6-0.1,2.6-0.1
	c0.3,0,0.4,0.1,0.6,0.3c0.1,0.2,0.2,0.5,0.1,0.7c0,0.3-0.1,0.5-0.2,0.8c-0.1,0.2-0.3,0.4-0.5,0.4c-1.4,0.1-2.5,0.3-3.3,0.6
	c-0.8,0.3-1.5,0.7-1.9,1.3c-0.4,0.6-0.7,1.4-0.9,2.3c-0.1,1-0.2,2.2-0.2,3.7v17.9c0,1.8,0.2,3.6,0.7,5.3c0.5,1.7,1.2,3.1,2.2,4.4
	c1,1.2,2.2,2.2,3.7,3c1.5,0.7,3.2,1.1,5.3,1.1c4.2,0,7.5-1.2,9.7-3.5c2.2-2.3,3.3-6.1,3.3-11.1v-11.1c0-0.7,0-1.6,0-2.6
	c0-1.1,0-2.1-0.1-3.1c0-1-0.1-2-0.2-3c-0.1-0.9-0.2-1.7-0.4-2.2c-0.2-0.7-0.5-1.3-0.7-1.7c-0.2-0.4-0.5-0.6-0.9-0.8
	c-0.4-0.2-0.8-0.3-1.3-0.3s-1.2-0.1-2-0.2c-0.2,0-0.4-0.1-0.5-0.4c-0.1-0.2-0.2-0.5-0.2-0.8c0-0.3,0-0.5,0.1-0.7
	c0.1-0.2,0.3-0.3,0.5-0.3c1.1,0,2.2,0.1,3.4,0.2c1.2,0.2,2.4,0.2,3.6,0.2c1.1,0,2.3-0.1,3.4-0.2c1.1-0.2,2.4-0.2,3.8-0.2
	c0.3,0,0.5,0.1,0.6,0.3c0.1,0.2,0.2,0.5,0.2,0.7c0,0.3-0.1,0.5-0.2,0.8c-0.1,0.2-0.3,0.4-0.6,0.4c-0.8,0.1-1.4,0.1-1.9,0.2
	c-0.5,0-0.8,0.1-1.1,0.3c-0.3,0.2-0.6,0.4-0.8,0.8c-0.2,0.4-0.5,0.9-0.8,1.7c-0.2,0.5-0.4,1.2-0.5,2.2c-0.1,0.9-0.2,1.9-0.2,2.9
	c0,1-0.1,2.1,0,3.1s0,2,0,2.8L214.4,269.3L214.4,269.3z M232.5,278.7c0,1.1,0,2,0.1,2.8c0,0.7,0.2,1.4,0.4,1.8
	c0.2,0.5,0.5,0.9,1,1.1c0.5,0.3,1.1,0.5,1.9,0.6c0.3,0,0.5,0.2,0.6,0.4c0.1,0.2,0.2,0.4,0.2,0.7c0,0.2-0.1,0.4-0.2,0.6
	c-0.1,0.2-0.3,0.3-0.6,0.3c-0.4,0-1.3-0.1-2.5-0.2c-1.2-0.2-2.5-0.2-3.8-0.2c-1.4,0-2.8,0.1-4.1,0.2c-1.3,0.2-2.5,0.2-3.7,0.2
	c-0.2,0-0.4-0.1-0.5-0.3c-0.1-0.2-0.2-0.4-0.2-0.6c0-0.3,0.1-0.5,0.2-0.7c0.1-0.2,0.3-0.3,0.6-0.4c1.1-0.1,1.9-0.3,2.5-0.5
	c0.6-0.2,1-0.5,1.3-1c0.3-0.4,0.4-1,0.5-1.7c0-0.7,0.1-1.6,0.1-2.7v-8.3c0-2.1,0-3.9-0.1-5.4c0-1.4-0.2-2.6-0.5-3.4
	c-0.3-0.8-0.7-1.4-1.2-1.7c-0.6-0.3-1.4-0.5-2.4-0.5c-0.3,0-0.5-0.1-0.6-0.3c-0.2-0.2-0.2-0.4-0.2-0.6c0-0.3,0.1-0.5,0.2-0.7
	c0.2-0.2,0.4-0.3,0.6-0.3c0.8,0,2-0.1,3.6-0.4c1.6-0.3,3.2-0.6,4.9-1.1c0.6-0.2,1.1-0.1,1.4,0.4c0.3,0.4,0.5,0.9,0.5,1.4v2.6
	c0,0.1,0,0.1,0.1,0.2c0.1,0,0.1,0,0.2-0.1c0.3-0.5,0.7-1,1.3-1.6c0.5-0.6,1.2-1.2,2-1.7c0.8-0.5,1.6-1,2.6-1.3c1-0.3,2-0.5,3.2-0.5
	c3.3,0,5.9,0.9,7.7,2.7c1.9,1.8,2.8,4.8,2.8,8.8v11.2c0,1.2,0,2.1,0.1,2.9c0.1,0.7,0.2,1.3,0.5,1.8c0.2,0.5,0.6,0.8,1.1,1.1
	c0.5,0.2,1.2,0.4,2.1,0.6c0.3,0,0.5,0.2,0.6,0.4c0.1,0.2,0.2,0.4,0.2,0.7c0,0.2-0.1,0.4-0.2,0.6c-0.1,0.2-0.3,0.3-0.6,0.3
	c-0.6,0-1.5-0.1-2.8-0.2c-1.3-0.2-2.6-0.2-3.9-0.2c-1.4,0-2.7,0.1-4,0.2c-1.3,0.2-2.3,0.2-3.2,0.2c-0.2,0-0.4-0.1-0.5-0.3
	c-0.1-0.2-0.2-0.4-0.2-0.6c0-0.3,0.1-0.5,0.2-0.7c0.1-0.2,0.3-0.3,0.6-0.4c1-0.1,1.7-0.3,2.2-0.6c0.5-0.3,0.9-0.6,1.1-1.1
	c0.2-0.5,0.4-1,0.4-1.7c0-0.7,0.1-1.5,0.1-2.5v-10c0-1.1,0-2.2-0.1-3.3c-0.1-1.1-0.3-2.1-0.7-3c-0.4-0.9-1-1.6-1.7-2.2
	c-0.7-0.6-1.8-0.9-3.1-0.9c-1.3,0-2.5,0.2-3.4,0.6c-1,0.4-1.8,1-2.5,1.7s-1.2,1.5-1.5,2.5c-0.4,0.9-0.5,1.9-0.5,3L232.5,278.7
	L232.5,278.7z M271.5,278.7c0,1.1,0,2,0.1,2.8c0,0.7,0.2,1.4,0.5,1.8c0.3,0.5,0.7,0.9,1.2,1.1c0.5,0.3,1.3,0.5,2.3,0.6
	c0.3,0,0.5,0.2,0.6,0.4c0.1,0.2,0.2,0.4,0.2,0.7c0,0.2-0.1,0.4-0.2,0.6c-0.1,0.2-0.3,0.3-0.6,0.3c-0.8,0-1.8-0.1-3.1-0.2
	c-1.3-0.2-2.6-0.2-3.9-0.2c-1.4,0-2.8,0.1-4.1,0.2c-1.3,0.2-2.6,0.2-3.8,0.2c-0.2,0-0.4-0.1-0.5-0.3c-0.1-0.2-0.2-0.4-0.2-0.6
	c0-0.3,0.1-0.5,0.2-0.7c0.1-0.2,0.3-0.3,0.6-0.4c1.1-0.1,2-0.3,2.7-0.6c0.6-0.3,1.1-0.6,1.4-1.1c0.3-0.5,0.4-1,0.5-1.7
	c0-0.7,0.1-1.5,0.1-2.5v-10.6c0-1.9,0-3.4-0.1-4.5c-0.1-1.1-0.3-2-0.6-2.6s-0.8-1-1.4-1.2c-0.6-0.2-1.4-0.4-2.5-0.5
	c-0.3,0-0.5-0.1-0.6-0.3c-0.1-0.2-0.2-0.4-0.2-0.7c0-0.2,0.1-0.4,0.2-0.7s0.3-0.3,0.6-0.3c0.4,0,1-0.1,1.6-0.1c0.6,0,1.3-0.1,2-0.2
	c0.7-0.1,1.4-0.2,2.1-0.3c0.7-0.1,1.4-0.2,1.9-0.4c0.5-0.1,0.9-0.2,1.2-0.3c0.3-0.1,0.5-0.2,0.7-0.2c0.5,0,0.9,0.2,1,0.5
	c0.2,0.3,0.2,0.6,0.2,0.9V278.7z M268,249.6c-1.1,0-2-0.3-2.8-1c-0.8-0.7-1.2-1.5-1.2-2.5c0-1,0.4-1.9,1.1-2.6
	c0.7-0.7,1.7-1.1,2.8-1.1c1.1,0,1.9,0.4,2.6,1.1c0.7,0.7,1,1.6,1,2.6c0,1-0.3,1.8-1,2.5C269.9,249.3,269,249.6,268,249.6z
	 M305.9,265.4c-2.9,7.2-6.1,14.6-9.4,22.1c0,0.1-0.2,0.2-0.4,0.2c-0.2,0.1-0.4,0.1-0.6,0.1c-0.2,0-0.4,0-0.6-0.1
	c-0.2-0.1-0.3-0.1-0.4-0.2c-1.9-3.8-3.6-7.5-5.3-11.1c-1.6-3.6-3.3-7.4-5-11.5c-0.4-1.1-0.8-1.9-1.1-2.6c-0.3-0.7-0.7-1.3-1.1-1.7
	c-0.4-0.4-0.8-0.8-1.3-1c-0.5-0.2-1.1-0.4-1.9-0.6c-0.2,0-0.4-0.2-0.5-0.4c-0.1-0.2-0.2-0.4-0.2-0.6c0-0.3,0-0.5,0.1-0.7
	c0.1-0.2,0.2-0.3,0.5-0.3c1.3,0,2.5,0.1,3.7,0.2c1.2,0.2,2.5,0.2,3.8,0.2c1.3,0,2.5-0.1,3.8-0.2c1.2-0.2,2.5-0.2,3.8-0.2
	c0.2,0,0.4,0.1,0.5,0.3c0.1,0.2,0.2,0.4,0.2,0.7c0,0.2-0.1,0.4-0.2,0.7c-0.1,0.2-0.3,0.3-0.5,0.3c-1.4,0.1-2.3,0.3-2.9,0.8
	c-0.6,0.4-0.9,1-0.9,1.8c0,0.7,0.2,1.5,0.5,2.4c1,2.7,2.1,5.4,3.2,7.9c1.1,2.6,2.2,5,3.3,7.3c0.1,0.2,0.2,0.3,0.4,0.3
	c0.2,0,0.3-0.1,0.4-0.3c0.4-1,0.9-2.1,1.5-3.5c0.6-1.4,1.1-2.8,1.7-4.3c0.5-1.5,1.1-2.9,1.5-4.4c0.5-1.4,0.9-2.7,1.2-3.7
	c0.2-0.6,0.3-1.1,0.3-1.6c0-1.1-0.3-1.8-1-2c-0.7-0.3-1.3-0.4-2-0.5c-0.3,0-0.5-0.2-0.6-0.4c-0.1-0.2-0.2-0.4-0.2-0.7
	c0-0.2,0.1-0.4,0.2-0.6c0.1-0.2,0.3-0.3,0.5-0.3c1,0,1.9,0.1,2.7,0.2c0.8,0.2,1.7,0.2,2.6,0.2c1,0,2-0.1,3.1-0.2
	c1.1-0.2,1.9-0.2,2.5-0.2c0.3,0,0.4,0.1,0.6,0.3c0.1,0.2,0.2,0.4,0.2,0.7c0,0.2-0.1,0.4-0.2,0.7c-0.1,0.2-0.3,0.3-0.5,0.3
	c-0.9,0-1.6,0.2-2.2,0.6c-0.6,0.3-1.1,0.8-1.5,1.3c-0.4,0.5-0.8,1.2-1.2,2C306.5,263.7,306.2,264.5,305.9,265.4z M322,269.9
	c-0.2,0-0.3,0.1-0.4,0.2c0,0.2,0,0.3,0,0.6c0,2.3,0.3,4.2,0.8,5.8c0.5,1.6,1.2,2.9,2.1,3.8c0.9,1,2,1.7,3.2,2.1
	c1.2,0.4,2.6,0.7,4,0.7c1.5,0,2.9-0.1,4.3-0.4c1.4-0.2,2.6-0.8,3.6-1.6c0.2-0.2,0.4-0.2,0.7-0.2c0.2,0,0.4,0.2,0.6,0.3
	c0.2,0.2,0.3,0.4,0.3,0.6c0,0.2,0,0.4-0.1,0.6c-1.4,1.8-3,3.1-4.7,3.8c-1.8,0.7-3.9,1-6.5,1c-2.6,0-4.9-0.4-6.8-1.2
	c-1.9-0.8-3.5-1.9-4.7-3.3c-1.2-1.4-2.2-3.1-2.8-5c-0.6-1.9-0.9-4-0.9-6.2c0-2.1,0.4-4.2,1.1-6.1c0.7-1.9,1.7-3.6,3.1-5
	c1.3-1.4,2.9-2.5,4.7-3.4c1.8-0.8,3.8-1.2,6-1.2c1.8,0,3.5,0.3,5,1c1.5,0.6,2.8,1.5,3.8,2.6c1.1,1.1,1.9,2.5,2.5,4
	c0.6,1.6,0.9,3.2,0.9,5c0,0.9-0.3,1.4-1,1.4L322,269.9L322,269.9z M334,267.6c0.6,0,1-0.2,1.1-0.7c0.1-0.4,0.1-1,0.1-1.6
	c0-0.9-0.1-1.8-0.4-2.7c-0.3-0.9-0.7-1.6-1.2-2.3c-0.5-0.7-1.2-1.2-1.9-1.6c-0.7-0.4-1.6-0.6-2.6-0.6c-1.2,0-2.2,0.2-3.1,0.6
	c-0.9,0.4-1.6,1-2.2,1.6c-0.6,0.7-1,1.5-1.3,2.4c-0.3,0.9-0.5,1.9-0.7,2.9c-0.1,0.5-0.1,1-0.1,1.3c0,0.3,0.1,0.5,0.3,0.5H334z
	 M357.3,278.7c0,1.1,0,2,0.1,2.8c0.1,0.7,0.3,1.4,0.7,1.8c0.4,0.5,1,0.9,1.8,1.1c0.8,0.3,2,0.5,3.6,0.6c0.3,0,0.5,0.2,0.6,0.4
	c0.1,0.2,0.2,0.4,0.2,0.7c0,0.2-0.1,0.4-0.2,0.6c-0.1,0.2-0.3,0.3-0.6,0.3c-1.9,0-3.5-0.1-5-0.2c-1.4-0.2-2.8-0.2-4.1-0.2
	c-1.4,0-2.8,0.1-4.2,0.2s-2.8,0.2-4.2,0.2c-0.2,0-0.4-0.1-0.5-0.3c-0.1-0.2-0.2-0.4-0.2-0.6c0-0.3,0.1-0.5,0.2-0.7
	c0.1-0.2,0.3-0.3,0.6-0.4c1.2-0.1,2.2-0.3,2.9-0.6c0.7-0.3,1.2-0.6,1.5-1.1c0.3-0.5,0.5-1,0.6-1.7c0.1-0.7,0.1-1.5,0.1-2.5v-9.6
	c0-2.1,0-3.8-0.1-5.1c-0.1-1.2-0.3-2.2-0.6-2.9c-0.3-0.7-0.8-1.1-1.5-1.3c-0.7-0.2-1.7-0.4-2.9-0.5c-0.2,0-0.4-0.1-0.5-0.3
	c-0.1-0.2-0.2-0.4-0.2-0.7c0-0.2,0.1-0.4,0.2-0.7c0.1-0.2,0.3-0.3,0.6-0.3c0.9-0.1,2.1-0.2,3.6-0.3c1.6-0.1,3.1-0.4,4.8-0.8
	c0.6-0.2,1.1-0.2,1.5-0.1c0.4,0.1,0.6,0.5,0.5,1.1l-0.1,4.2c0,0.1,0,0.1,0.1,0.2c0,0,0.1,0,0.2-0.1c0.9-1.8,2-3.3,3.4-4.4
	c1.3-1.1,3.1-1.6,5.4-1.6c1.8,0,3.2,0.5,4.1,1.4c0.9,0.9,1.3,2.1,1.3,3.5c0,0.7-0.3,1.4-0.9,2c-0.6,0.6-1.4,0.9-2.4,0.9
	c-1,0-1.7-0.2-2.1-0.7c-0.4-0.5-0.6-1-0.6-1.6c0-0.6-0.1-1.1-0.4-1.4c-0.2-0.3-0.8-0.5-1.5-0.5c-0.8,0-1.6,0.3-2.3,0.8
	c-0.7,0.5-1.3,1.2-1.7,1.9c-0.5,0.7-0.9,1.5-1.1,2.3c-0.3,0.8-0.4,1.4-0.4,1.8L357.3,278.7L357.3,278.7z M393.9,256.9
	c-0.1,0.5-0.3,1.1-0.4,1.8c-0.1,0.7-0.2,1.4-0.2,2.2c0,0.8,0,1.7,0.1,2.6c0,0.9,0.1,1.6,0.1,2.1c0,0.1-0.1,0.2-0.3,0.3
	c-0.2,0.1-0.4,0.1-0.6,0.2c-0.2,0-0.4,0-0.6-0.1c-0.2-0.1-0.3-0.2-0.3-0.3c-0.5-2.3-1.3-4.1-2.4-5.4c-1.1-1.2-2.8-1.9-5.3-1.9
	c-1.6,0-3,0.4-4,1.2c-1,0.8-1.6,1.9-1.6,3.3c0,1.1,0.4,2,1.3,2.6c0.9,0.6,2,1.2,3.5,1.7c0.6,0.2,1.3,0.5,2.2,0.8
	c0.9,0.3,1.5,0.6,2.1,0.8c1.1,0.5,2.2,1.1,3.2,1.6c1,0.6,1.8,1.2,2.6,2c0.7,0.8,1.3,1.6,1.7,2.6c0.4,1,0.6,2.1,0.6,3.3
	c0,1.7-0.3,3.1-1.1,4.2c-0.7,1.1-1.6,2-2.7,2.7c-1.1,0.7-2.3,1.2-3.7,1.5c-1.4,0.3-2.8,0.5-4.1,0.5c-1.1,0-2.4-0.1-3.8-0.4
	c-1.4-0.3-2.6-0.6-3.7-1.1c-0.3-0.1-0.5,0-0.8,0.1c-0.3,0.2-0.5,0.5-0.6,1c0,0.1-0.1,0.2-0.3,0.3c-0.2,0-0.4,0.1-0.6,0.1
	c-0.2,0-0.4,0-0.5-0.1c-0.2-0.1-0.3-0.2-0.3-0.3c0-0.3,0-0.8,0.1-1.4c0.1-0.6,0.1-1.2,0.1-1.7s0-1.1-0.1-1.7
	c-0.1-0.6-0.1-1.3-0.2-1.9c-0.1-0.6-0.1-1.2-0.2-1.6c0-0.5-0.1-0.8-0.1-1.1c0-0.2,0.1-0.3,0.3-0.4c0.2-0.1,0.4-0.1,0.6-0.2
	c0.2,0,0.4,0,0.6,0.1c0.2,0.1,0.3,0.2,0.4,0.4c0.3,1.3,0.7,2.4,1.2,3.3c0.5,1,1.1,1.8,1.8,2.4c0.7,0.7,1.6,1.1,2.6,1.5
	c1,0.3,2.3,0.5,3.7,0.5c1.6,0,2.9-0.4,3.8-1.3c1-0.9,1.5-2.1,1.5-3.7c0-1.4-0.5-2.5-1.5-3.3c-1-0.8-2.1-1.5-3.4-2.1
	c-0.6-0.3-1.2-0.5-1.9-0.8c-0.6-0.3-1.3-0.5-1.9-0.8c-1-0.4-1.9-0.8-2.9-1.2c-0.9-0.4-1.8-0.9-2.5-1.5c-0.7-0.6-1.3-1.4-1.7-2.3
	c-0.4-0.9-0.7-2.1-0.7-3.4c0-1.6,0.3-2.9,1-4c0.7-1.1,1.6-2,2.6-2.7c1.1-0.7,2.3-1.2,3.6-1.5c1.3-0.3,2.6-0.5,3.9-0.5
	c1.2,0,2.3,0.1,3.3,0.4c0.9,0.3,2,0.8,3.1,1.5c0.2,0.1,0.4,0.1,0.7,0s0.5-0.5,0.7-1.1c0-0.2,0.2-0.3,0.4-0.3c0.2,0,0.4-0.1,0.7,0
	c0.2,0,0.4,0.1,0.6,0.2C393.8,256.7,393.9,256.8,393.9,256.9z M410,278.7c0,1.1,0,2,0.1,2.8c0,0.7,0.2,1.4,0.5,1.8
	c0.3,0.5,0.7,0.9,1.2,1.1c0.5,0.3,1.3,0.5,2.3,0.6c0.3,0,0.5,0.2,0.6,0.4c0.1,0.2,0.2,0.4,0.2,0.7c0,0.2-0.1,0.4-0.2,0.6
	c-0.1,0.2-0.3,0.3-0.6,0.3c-0.8,0-1.8-0.1-3.1-0.2c-1.3-0.2-2.6-0.2-3.9-0.2c-1.4,0-2.8,0.1-4.1,0.2c-1.3,0.2-2.6,0.2-3.8,0.2
	c-0.2,0-0.4-0.1-0.5-0.3c-0.1-0.2-0.2-0.4-0.2-0.6c0-0.3,0.1-0.5,0.2-0.7c0.1-0.2,0.3-0.3,0.6-0.4c1.1-0.1,2-0.3,2.7-0.6
	c0.6-0.3,1.1-0.6,1.4-1.1c0.3-0.5,0.4-1,0.5-1.7c0-0.7,0.1-1.5,0.1-2.5v-10.6c0-1.9,0-3.4-0.1-4.5c-0.1-1.1-0.3-2-0.6-2.6
	c-0.3-0.6-0.8-1-1.4-1.2c-0.6-0.2-1.4-0.4-2.5-0.5c-0.3,0-0.5-0.1-0.6-0.3c-0.1-0.2-0.2-0.4-0.2-0.7c0-0.2,0.1-0.4,0.2-0.7
	c0.1-0.2,0.3-0.3,0.6-0.3c0.4,0,1-0.1,1.6-0.1c0.6,0,1.3-0.1,2-0.2c0.7-0.1,1.4-0.2,2.1-0.3c0.7-0.1,1.4-0.2,1.9-0.4
	c0.5-0.1,0.9-0.2,1.2-0.3c0.3-0.1,0.5-0.2,0.7-0.2c0.5,0,0.9,0.2,1,0.5c0.2,0.3,0.2,0.6,0.2,0.9L410,278.7L410,278.7z M406.5,249.6
	c-1.1,0-2-0.3-2.8-1c-0.8-0.7-1.2-1.5-1.2-2.5c0-1,0.4-1.9,1.1-2.6c0.7-0.7,1.7-1.1,2.8-1.1c1,0,1.9,0.4,2.6,1.1
	c0.7,0.7,1,1.6,1,2.6c0,1-0.3,1.8-1,2.5C408.4,249.3,407.5,249.6,406.5,249.6z M427.8,276.6c0,2.5,0.3,4.3,0.8,5.5
	c0.5,1.2,1.5,1.8,3,1.8c1,0,2-0.2,2.9-0.5c0.9-0.3,1.6-0.6,2.1-1c0.1-0.1,0.3-0.1,0.5,0c0.2,0.1,0.3,0.2,0.5,0.3
	c0.1,0.2,0.2,0.3,0.3,0.5c0.1,0.2,0.1,0.3,0,0.5c-0.8,1.4-1.9,2.3-3.3,2.9c-1.3,0.6-2.9,0.9-4.7,0.9c-3,0-5.1-0.7-6.3-2
	c-1.2-1.3-1.8-3.4-1.8-6.3v-16.9c0-0.5,0-0.9-0.1-1.2c0-0.3-0.2-0.5-0.4-0.7c-0.2-0.1-0.6-0.2-1.1-0.2c-0.5,0-1.2,0-2.1,0
	c-0.1,0-0.2-0.1-0.3-0.4c-0.1-0.3-0.1-0.5-0.2-0.9c0-0.3,0-0.6,0.1-0.9c0.1-0.3,0.2-0.4,0.4-0.4c1.1-0.1,2-0.3,2.8-0.5
	c0.8-0.2,1.5-0.6,2-1.2c0.5-0.5,1-1.2,1.3-2.1c0.3-0.9,0.6-2.1,0.8-3.5c0-0.3,0.2-0.5,0.5-0.6c0.3-0.1,0.6-0.2,1-0.2
	c0.4,0,0.7,0.1,1,0.2c0.3,0.1,0.4,0.3,0.4,0.4v5.6c0,0.7,0,1.1,0.1,1.2c0.1,0.1,0.3,0.2,0.8,0.2h6.8c0.3,0,0.5,0.2,0.6,0.5
	c0.1,0.4,0.1,0.7,0.1,0.9c0,0.3-0.1,0.6-0.2,1c-0.1,0.4-0.3,0.6-0.7,0.6h-7c-0.3,0-0.5,0.1-0.5,0.2c0,0.2-0.1,0.7-0.1,1.7
	L427.8,276.6L427.8,276.6z M457.5,278.2c0.1,0.3,0.3,0.4,0.5,0.3c0.2,0,0.3-0.2,0.4-0.3c1.4-2.7,2.5-5.2,3.6-7.7
	c1-2.5,1.9-4.9,2.7-7.1c0.3-0.7,0.5-1.4,0.5-2c0-0.5-0.1-0.9-0.4-1.2c-0.2-0.3-0.5-0.5-0.9-0.7c-0.4-0.2-0.8-0.3-1.2-0.4
	c-0.4-0.1-0.8-0.2-1.1-0.2c-0.3,0-0.4-0.2-0.6-0.4c-0.1-0.2-0.2-0.4-0.2-0.6c0-0.2,0.1-0.4,0.2-0.6c0.1-0.2,0.3-0.3,0.5-0.3
	c0.8,0,1.7,0.1,2.6,0.2s1.7,0.2,2.6,0.2c1,0,2-0.1,3.1-0.2c1.1-0.1,1.9-0.2,2.5-0.2c0.2,0,0.4,0.1,0.5,0.3c0.1,0.2,0.2,0.4,0.2,0.7
	c0,0.2-0.1,0.4-0.2,0.6c-0.1,0.2-0.3,0.3-0.5,0.3c-0.7,0.1-1.2,0.2-1.6,0.5c-0.4,0.2-0.8,0.5-1.1,1c-0.3,0.4-0.6,0.9-0.9,1.6
	c-0.3,0.6-0.7,1.4-1.1,2.3c-1.3,2.8-2.6,5.7-3.9,8.8c-1.4,3.1-2.8,6.3-4.3,9.6c-1.4,3.1-2.8,6.1-4.3,9c-1.5,3-2.9,5.7-4.2,8.3
	c-0.4,0.7-0.8,1.4-1.3,2.3c-0.5,0.9-1.1,1.7-1.9,2.4c-0.7,0.8-1.5,1.4-2.5,1.9c-0.9,0.5-1.9,0.8-3,0.8c-1,0-2-0.3-2.9-0.8
	c-0.9-0.5-1.4-1.4-1.4-2.7c0-0.9,0.3-1.7,0.9-2.4c0.6-0.7,1.3-1,2.2-1c0.4,0,0.7,0.1,0.9,0.2c0.2,0.2,0.4,0.3,0.6,0.5
	c0.2,0.2,0.4,0.3,0.7,0.5c0.2,0.2,0.5,0.2,0.9,0.2c0.5,0,1-0.3,1.6-0.9c0.6-0.6,1.3-1.4,1.9-2.3c0.7-0.9,1.4-2,2-3.2
	c0.7-1.2,1.3-2.3,1.9-3.4c0.6-1.1,1.1-2.1,1.5-3c0.4-0.9,0.7-1.5,0.9-1.9c0.2-0.5,0.3-1,0.3-1.4c0-0.4-0.1-0.8-0.3-1.2
	c-1.4-2.9-3-6.1-4.7-9.7c-1.7-3.5-3.3-7.1-4.9-10.6c-0.4-1.1-0.8-1.9-1.2-2.6c-0.4-0.7-0.7-1.2-1.1-1.6c-0.4-0.4-0.8-0.7-1.3-0.9
	c-0.5-0.2-1.1-0.4-1.8-0.5c-0.2,0-0.4-0.2-0.5-0.4c-0.1-0.2-0.2-0.4-0.2-0.6c0-0.2,0.1-0.4,0.2-0.6c0.1-0.2,0.3-0.3,0.5-0.3
	c1.4,0,2.7,0.1,3.9,0.2c1.2,0.1,2.5,0.2,3.8,0.2s2.5-0.1,3.7-0.2c1.2-0.1,2.5-0.2,3.7-0.2c0.2,0,0.4,0.1,0.5,0.3
	c0.1,0.2,0.2,0.4,0.2,0.6c0,0.2-0.1,0.4-0.2,0.6c-0.1,0.2-0.3,0.3-0.5,0.4c-1.4,0.2-2.4,0.4-3,0.8c-0.6,0.4-0.9,0.8-0.9,1.4
	c0,0.9,0.2,1.8,0.6,2.8c0.9,2.5,1.9,4.9,3,7.4C455.3,273.7,456.4,276,457.5,278.2z"/>
<line class="st1" x1="-126.9" y1="318.1" x2="473.1" y2="318.1"/>
</svg>
